subject01_walk1_RRA_states
nRows=4
nColumns=47

# SIMM Motion File Header:
name subject01_walk1_RRA_states
datacolumns 47
datarows 4
otherdata 1
range 1.12299999999998670000 1.12449999999998650000
endheader
time	pelvis_tx	pelvis_ty	pelvis_tz	pelvis_tilt	pelvis_list	pelvis_rotation	hip_flexion_r	hip_adduction_r	hip_rotation_r	knee_angle_r	ankle_angle_r	subtalar_angle_r	mtp_angle_r	hip_flexion_l	hip_adduction_l	hip_rotation_l	knee_angle_l	ankle_angle_l	subtalar_angle_l	mtp_angle_l	lumbar_extension	lumbar_bending	lumbar_rotation	pelvis_tx_u	pelvis_ty_u	pelvis_tz_u	pelvis_tilt_u	pelvis_list_u	pelvis_rotation_u	hip_flexion_r_u	hip_adduction_r_u	hip_rotation_r_u	knee_angle_r_u	ankle_angle_r_u	subtalar_angle_r_u	mtp_angle_r_u	hip_flexion_l_u	hip_adduction_l_u	hip_rotation_l_u	knee_angle_l_u	ankle_angle_l_u	subtalar_angle_l_u	mtp_angle_l_u	lumbar_extension_u	lumbar_bending_u	lumbar_rotation_u
      1.12299999999998670000	      0.57681723197201540000	      1.03657040272523050000	      0.05450192373403350100	      4.72992648851057940000	     -2.64549510403350130000	     -1.31155947468745750000	    -13.39399543464001000000	      4.76164754758897500000	     -1.24969054832222510000	     -5.91207540882842330000	     10.77527076513228000000	     -0.04583311803673308100	      0.00929881060332232720	     19.52914560974593900000	     -5.40273601116121240000	     -9.13990736900774790000	    -17.40300537030687900000	     -1.48111036911663140000	     -0.00100030981813246650	     -0.02109896456977008700	    -16.56561463248336400000	      3.50475588736601300000	      2.79147073655801580000	     -0.07534600096117767500	     -0.16348895798517565000	      0.00426397742347914280	     -3.65930939707356110000	    -34.31781546064240000000	    -19.11010590691527300000	    -83.11221255567019700000	     30.33859428737238400000	     39.67490316996812500000	     30.00396898187026600000	     30.32384362659266200000	     -1.53959995675571970000	      0.63354054728090947000	    -21.03406231923373300000	    -14.14791325714430000000	     13.67125349271992700000	    337.70517740056141000000	    -13.85094145396948500000	      0.01826400840809244300	      0.15407975259657136000	     -1.13217402481575410000	     24.86990558837316100000	     17.15883391447155400000
      1.12349999999998660000	      0.57677966786739465000	      1.03648854611138710000	      0.05450396380732330800	      4.72811585328697960000	     -2.66263890483462000000	     -1.32112793590915680000	    -13.43554754200142700000	      4.77678114471394190000	     -1.22985269673708660000	     -5.89714347898162480000	     10.79040855650388400000	     -0.04660222984034664100	      0.00961555829193465330	     19.51860577248658000000	     -5.40977510904029390000	     -9.13290132124473430000	    -17.23439060718394700000	     -1.48791740277769140000	     -0.00099123397321278141	     -0.02102202955510111500	    -16.56619955874063200000	      3.51716426434028010000	      2.80004208530210930000	     -0.07491035894687057800	     -0.16393651480164176000	      0.00389626526751708090	     -3.58315336035398200000	    -34.25698448475016300000	    -19.16368269544535600000	    -83.09603199350546300000	     30.19524705774808700000	     39.67604815884782000000	     29.72345748601931700000	     30.22722492704419700000	     -1.53663190995908220000	      0.63291609171059282000	    -21.12489907702922700000	    -14.00850376803360200000	     14.35248059877882700000	    336.75140564563662000000	    -13.37691130080561500000	      0.01803644334396966100	      0.15368118835569505000	     -1.20762416991155260000	     24.76314639802388800000	     17.12644277350440400000
      1.12399999999998660000	      0.57674232166784534000	      1.03640646719096190000	      0.05450581994884166900	      4.72634341215787130000	     -2.67975168003519930000	     -1.33072310263129910000	    -13.47709127728679400000	      4.79184224116851710000	     -1.21001496390507350000	     -5.88235225449047850000	     10.80549755393386700000	     -0.04736973671804258600	      0.00993177092613818470	     19.50802110095212400000	     -5.41674453386888020000	     -9.12555535241089900000	    -17.06625643584770200000	     -1.49448697723533060000	     -0.00098227325291640731	     -0.02094528356328467100	    -16.56682234862389800000	      3.52951857177487580000	      2.80859706109912420000	     -0.07447438884332098500	     -0.16437818855481029000	      0.00352825104388062530	     -3.50653556825221010000	    -34.19370237371752800000	    -19.21693108762567100000	    -83.07871519064876500000	     30.04857888663444500000	     39.67441308486225200000	     29.44112766488671800000	     30.12804910980683500000	     -1.53356673848664090000	      0.63245537675240071000	    -21.21339385451197000000	    -13.86920779738311700000	     15.03092263617861100000	    335.78280805354780000000	    -12.90106280005883700000	      0.01780953115052437800	      0.15328161323117009000	     -1.28362580797018650000	     24.65361501933098200000	     17.09334235528672600000
      1.12449999999998650000	      0.57670519353236827000	      1.03632416889893350000	      0.05450749201161565700	      4.72460939199908300000	     -2.69683220068699740000	     -1.34034481134002630000	    -13.51862606554356500000	      4.80682917208327430000	     -1.19017875388418300000	     -5.86770265210388600000	     10.82053592073048500000	     -0.04813586986011984800	      0.01024849308009648100	     19.49739277106120400000	     -5.42364433835696060000	     -9.11787087831437230000	    -16.89861026910240600000	     -1.50081817812955580000	     -0.00097342370242236849	     -0.02086874850890013300	    -16.56748327281685800000	      3.54181741989465550000	      2.81713530946570150000	     -0.07403809642399607200	     -0.16481400617893033000	      0.00315995691831471310	     -3.42947248935019160000	    -34.12798072675325800000	    -19.26984566870432800000	    -83.06024826449983300000	     29.89860133819404800000	     39.66996049054225200000	     29.15699391321996000000	     30.02485942113977700000	     -1.53090931470708360000	      0.63470876395531073000	    -21.29953367459647100000	    -13.73004059955103000000	     15.70648551694986500000	    334.79939195976181000000	    -12.42349046243953100000	      0.01758681242455675800	      0.15287881548636895000	     -1.36015659955032690000	     24.54132641716480700000	     17.05953286656652400000
